<svg xmlns="http://www.w3.org/2000/svg" xmlns:xlink="http://www.w3.org/1999/xlink"><symbol id="icon-cart"><path d="M11.864 3.017a.429.429 0 00-.327-.154H9.225V4.09c0 .563-.484 1.022-1.08 1.022-.594 0-1.078-.458-1.078-1.022V2.863H4.909V4.09c0 .563-.485 1.022-1.08 1.022-.595 0-1.078-.458-1.078-1.022V2.863H.438a.43.43 0 00-.327.154.472.472 0 00-.108.358l.776 7.134c.015.806.642 1.455 1.411 1.455h7.595c.77 0 1.396-.649 1.411-1.455l.776-7.134a.476.476 0 00-.108-.358z"/><path d="M3.829 4.499c.239 0 .433-.184.433-.409V1.84c0-.632.672-1.022 1.295-1.022h1.079c.655 0 1.078.401 1.078 1.022v2.25c0 .225.194.409.431.409.239 0 .433-.184.433-.409V1.84C8.577.773 7.761 0 6.636 0H5.557c-1.19 0-2.159.826-2.159 1.84v2.25c0 .225.194.409.431.409z"/></symbol><symbol id="icon-compare"><path d="M8 2h1.984v8H8zM0 3h1.984v7H0zm4-3h2v10H4z"/></symbol><symbol id="icon-down-dir"><path fill="#231F20" d="M5.5 10L0 0h11"/></symbol><symbol id="icon-fb"><path fill="#FFF" d="M16 0C7.164 0 0 7.163 0 16s7.164 16 16 16c8.837 0 16-7.164 16-16S24.837 0 16 0zm4.062 9.455h-3.021v3.444h3.021v3.445h-3.021v8.61H14.02v-8.61H11v-3.445h3.021V9.455c0-1.902 1.353-3.445 3.021-3.445h3.021v3.445z"/></symbol><symbol id="icon-instagram"><g fill="#FFF"><path d="M20.916 16a4.938 4.938 0 11-9.877 0c0-.394.051-.773.138-1.14h-.897v6.838h11.396V14.86h-.897c.086.367.137.746.137 1.14z"/><path d="M15.978 18.659c1.466 0 2.659-1.193 2.659-2.659s-1.193-2.659-2.659-2.659c-1.466 0-2.659 1.193-2.659 2.659s1.192 2.659 2.659 2.659zm2.659-8.357h3.039v3.039h-3.039z"/><path d="M16 0C7.164 0 0 7.164 0 16c0 8.837 7.164 16 16 16 8.837 0 16-7.163 16-16 0-8.836-7.163-16-16-16zm7.955 21.698a2.285 2.285 0 01-2.279 2.279H10.279A2.285 2.285 0 018 21.698V10.302a2.286 2.286 0 012.279-2.279h11.396a2.286 2.286 0 012.279 2.279v11.396z"/></g></symbol><symbol id="icon-modal-close"><path fill="#F0C52E" d="M27.5 0C12.312 0 0 12.312 0 27.5S12.312 55 27.5 55 55 42.688 55 27.5 42.688 0 27.5 0zm11.476 37.072l-1.486 1.426-9.99-9.574-9.987 9.574-1.488-1.426 9.988-9.573-9.987-9.573 1.487-1.425 9.987 9.573 9.988-9.573 1.487 1.425-9.989 9.574 9.99 9.572z"/></symbol><symbol id="icon-search"><path d="M15.7 14.3l-3.104-3.104A6.979 6.979 0 0014 7a7 7 0 10-7 7 6.963 6.963 0 004.193-1.404L14.3 15.7c.185.184.38.3.7.3a1 1 0 001-1 .93.93 0 00-.3-.7zM2 7c0-2.762 2.238-5 5-5s5 2.238 5 5-2.238 5-5 5-5-2.238-5-5z"/></symbol><symbol id="icon-twitter"><path fill="#FFF" d="M16 0C7.164 0 0 7.164 0 16c0 8.837 7.164 16 16 16 8.837 0 16-7.163 16-16 0-8.836-7.163-16-16-16zm7.944 12.809c-.251 6.516-3.463 10.832-10.992 10.702h-.486c-.447 0-4.543-.443-5.344-1.823 2.479.19 4.247-.406 5.12-1.136-1.048-.289-2.923-.461-3.251-2.848.384.104.618.221 1.299.113-1.307-.824-2.758-1.519-2.679-3.643.311.317 1.164.518 1.46.457-.768-.233-2.149-3.244-.974-4.781 1.984 1.79 4.075 3.482 7.804 3.643.227-2.214 1.24-3.699 3.168-4.325 1.84-.479 3.255.26 3.901 1.138.737-.224 1.453-.466 2.193-.685-.004.833-.569 1.463-.935 1.709.747.165 1.423-.475 1.423-.475-.184.963-1.094 1.725-1.707 1.954z"/></symbol><symbol id="icon-up-dir"><path fill="#231F20" d="M5.5 0L0 10h11z"/></symbol><symbol id="icon-user"><path fill="#272525" d="M.032 12h12.937c-.163-2.643-2.074-4.837-4.671-5.543a3.47 3.47 0 001.687-2.972 3.485 3.485 0 00-6.97 0c0 1.264.68 2.361 1.688 2.972C2.106 7.163.194 9.357.032 12z"/></symbol></svg>